<svg width="78" height="78" viewBox="0 0 78 78" fill="none" xmlns="http://www.w3.org/2000/svg">
<path d="M39.0001 41.5164C37.6099 41.5164 36.484 40.3905 36.484 39.0002C36.484 37.61 37.6099 36.4841 39.0001 36.4841C39.4607 36.4841 39.8872 36.6175 40.2583 36.8325V1.2897C39.8394 1.27575 39.4218 1.2583 39.0001 1.2583C18.155 1.2583 1.2582 18.1551 1.2582 39.0002C1.2582 59.8453 18.1553 76.7422 39.0001 76.7422C39.4215 76.7422 39.8394 76.7245 40.2583 76.7108V41.1677C39.8869 41.383 39.4604 41.5164 39.0001 41.5164Z" fill="#ABD5EC"/>
<path d="M75.4047 41.4345L77.9157 41.5993C77.971 40.7413 78 39.8658 78 39.0002H75.4839C75.4839 39.8178 75.4576 40.6294 75.4047 41.4345Z" fill="#678CC4"/>
<path d="M11.6107 63.1045L9.72364 64.7701C10.8485 66.0433 12.061 67.2521 13.3305 68.363L14.9872 66.4685C13.7996 65.4306 12.6636 64.2972 11.6107 63.1045Z" fill="#678CC4"/>
<path d="M17.3765 71.4617C18.7879 72.4027 20.2726 73.2607 21.7909 74.0079L22.9031 71.7497C21.4828 71.0503 20.0939 70.2502 18.7729 69.3669L17.3765 71.4617Z" fill="#678CC4"/>
<path d="M26.5037 75.9544C28.1066 76.4965 29.7646 76.9383 31.4316 77.2665L31.9171 74.7968C30.3583 74.4912 28.8084 74.0784 27.3089 73.5703L26.5037 75.9544Z" fill="#678CC4"/>
<path d="M69.323 59.2952L71.4127 60.6953C72.3563 59.2876 73.2168 57.8029 73.9677 56.2847L71.7133 55.1687C71.0101 56.5879 70.2063 57.9768 69.323 59.2952Z" fill="#678CC4"/>
<path d="M3.22952 46.2188L0.762505 46.7131C1.09584 48.3726 1.54244 50.0282 2.09102 51.6321L4.47242 50.8194C3.95926 49.3175 3.54031 47.77 3.22952 46.2188Z" fill="#678CC4"/>
<path d="M4.05345 56.3314C4.80574 57.8462 5.66753 59.3282 6.6136 60.7335L8.70084 59.3306C7.81651 58.0147 7.01135 56.6296 6.30683 55.2117L4.05345 56.3314Z" fill="#678CC4"/>
<path d="M36.645 75.4084L36.484 77.9208C37.3155 77.9737 38.1547 78 39.0001 78C39.8619 78 40.7299 77.9723 41.5767 77.917L41.4119 75.406C39.8367 75.5091 38.2213 75.5101 36.645 75.4084Z" fill="#678CC4"/>
<path d="M73.5439 50.7679L75.9267 51.5793C76.4726 49.9778 76.9181 48.3197 77.249 46.6538L74.7807 46.1619C74.4712 47.7199 74.0547 49.2684 73.5439 50.7679Z" fill="#678CC4"/>
<path d="M46.1382 74.7856L46.6288 77.2526C48.2906 76.923 49.9463 76.4802 51.5515 75.9354L50.7413 73.5513C49.2418 74.0623 47.6932 74.4761 46.1382 74.7856Z" fill="#678CC4"/>
<path d="M63.0441 66.4422L64.7022 68.3343C65.9728 67.2211 67.1856 66.0093 68.3053 64.735L66.4156 63.0742C65.3678 64.2659 64.2331 65.3993 63.0441 66.4422Z" fill="#678CC4"/>
<path d="M55.1385 71.7311L56.2531 73.9869C57.7679 73.2384 59.251 72.3804 60.6614 71.4367L59.2625 69.3457C57.9426 70.2279 56.5551 71.0304 55.1385 71.7311Z" fill="#678CC4"/>
<path d="M2.51613 39.0001C2.51613 18.8824 18.8824 2.51613 39.0001 2.51613C45.4728 2.51613 51.7432 4.21717 57.2835 7.43379L53.6288 8.89569L54.5636 11.232L61.6453 8.39998V1.2582H59.1292V5.61868C53.0625 1.95117 46.1484 0 39.0001 0C17.4959 0 0 17.4959 0 39.0001C0 39.8657 0.0289858 40.7412 0.0842736 41.5981L2.5953 41.4333C2.54243 40.6292 2.51613 39.8176 2.51613 39.0001Z" fill="#678CC4"/>
<path d="M66.6775 30.1935C66.6775 29.4689 66.4623 28.7971 66.1064 28.2222L72.9991 17.3914C73.3853 17.5248 73.7941 17.6129 74.2257 17.6129C76.3065 17.6129 78 15.9196 78 13.8385C78 11.7575 76.3067 10.0645 74.2259 10.0645C72.1451 10.0645 70.4516 11.7577 70.4516 13.8388C70.4516 14.5634 70.6668 15.2352 71.0227 15.8101L64.1297 26.6409C63.7435 26.5075 63.3345 26.4194 62.9032 26.4194C61.9107 26.4194 61.0135 26.8121 60.3393 27.4398L55.302 24.4178C55.3258 24.2479 55.3548 24.0794 55.3548 23.9033C55.3548 21.8225 53.6616 20.129 51.5805 20.129C49.4994 20.129 47.8062 21.8222 47.8062 23.9033C47.8062 24.5563 47.9887 25.1626 48.2818 25.6986L40.4314 35.5116C40.3761 35.489 40.3144 35.4775 40.2578 35.4574V7.54834H38.9996C21.6572 7.54834 7.54784 21.6575 7.54784 39.0001C7.54784 56.3427 21.6575 70.4516 39.0001 70.4516H40.2581V42.5428C41.7186 42.0219 42.7742 40.6381 42.7742 39.0001C42.7742 38.3471 42.5917 37.7408 42.2986 37.2048L50.1489 27.3918C50.5918 27.5743 51.0735 27.6774 51.5805 27.6774C52.573 27.6774 53.4702 27.2847 54.1444 26.657L59.1818 29.6787C59.1579 29.8486 59.1289 30.0172 59.1289 30.1932C59.1289 32.274 60.8221 33.9676 62.9032 33.9676C64.9843 33.9676 66.6775 32.2743 66.6775 30.1935ZM74.2259 12.5806C74.9192 12.5806 75.4841 13.1456 75.4841 13.8388C75.4841 14.532 74.9192 15.097 74.2259 15.097C73.5327 15.097 72.9677 14.532 72.9677 13.8388C72.9677 13.1456 73.5327 12.5806 74.2259 12.5806ZM37.7419 25.107C33.9526 24.9157 30.5231 23.9068 27.6447 22.6336C30.8312 16.3997 35.2698 12.7314 37.7419 11.0468V25.107ZM25.4417 21.5619C22.7144 20.1113 20.6674 18.5702 19.5289 17.6241C23.6113 13.9027 28.7569 11.3326 34.452 10.4292C31.7421 12.6434 28.168 16.2744 25.4417 21.5619ZM24.3612 23.8692C22.7206 27.7125 21.5735 32.3121 21.4162 37.7419H10.0959C10.3992 30.6868 13.2435 24.2817 17.731 19.4119C18.9527 20.4562 21.245 22.2262 24.3612 23.8692ZM21.4159 40.258C21.5719 45.6891 22.7206 50.2884 24.3609 54.1307C21.2447 55.7737 18.9524 57.5438 17.731 58.5867C13.2425 53.7182 10.3992 47.3134 10.0959 40.258H21.4159ZM25.4417 56.438C28.168 61.7258 31.7421 65.3565 34.452 67.5707C28.7555 66.6673 23.61 64.0972 19.5289 60.3758C20.6674 59.4297 22.7144 57.8873 25.4417 56.438ZM27.6938 55.3459C30.5623 54.0816 33.974 53.084 37.7419 52.894V66.9276C35.2913 65.2218 30.8817 61.5255 27.6938 55.3459ZM37.7419 50.3754C33.5325 50.5654 29.7606 51.6535 26.6194 53.0386C25.1299 49.4972 24.0856 45.2613 23.9334 40.2591H35.4585C35.8385 41.3246 36.6775 42.1638 37.7433 42.5439V50.3754H37.7419ZM35.4574 37.7419H23.931C24.0807 32.7196 25.1087 28.4801 26.5781 24.9449C29.7282 26.3376 33.5151 27.4348 37.7422 27.6245V35.4571C36.6764 35.8371 35.8372 36.6764 35.4574 37.7419ZM39.0001 40.258C38.3069 40.258 37.7419 39.6931 37.7419 38.9998C37.7419 38.3066 38.3069 37.7416 39.0001 37.7416C39.6934 37.7416 40.2583 38.3066 40.2583 38.9998C40.2581 39.6931 39.6931 40.258 39.0001 40.258ZM51.5808 25.1612C50.8875 25.1612 50.3226 24.5963 50.3226 23.903C50.3226 23.2098 50.8875 22.6448 51.5808 22.6448C52.274 22.6448 52.839 23.2098 52.839 23.903C52.839 24.5963 52.2737 25.1612 51.5808 25.1612ZM62.9032 31.4517C62.21 31.4517 61.645 30.8867 61.645 30.1935C61.645 29.5003 62.21 28.9353 62.9032 28.9353C63.5965 28.9353 64.1614 29.5003 64.1614 30.1935C64.1614 30.8867 63.5965 31.4517 62.9032 31.4517Z" fill="#678CC4"/>
</svg>
