<svg width="78" height="78" viewBox="0 0 78 78" fill="none" xmlns="http://www.w3.org/2000/svg">
<path d="M65.4194 65.4193C61.9508 65.4193 59.1289 62.5974 59.1289 59.1288C59.1289 55.6602 61.9508 52.8386 65.4194 52.8386C68.888 52.8386 71.7095 55.6605 71.7095 59.1291C71.7095 62.5977 68.888 65.4193 65.4194 65.4193Z" fill="#C2E6FA"/>
<path d="M72.9676 40.2581H47.8064V33.0015L67.7567 37.2022C69.4589 37.5593 71.2039 37.7419 72.9676 37.7419C75.743 37.7419 78 35.4849 78 32.7095C78 30.6716 76.7847 28.8486 74.9039 28.0648L70.4517 26.2091V20.1289H62.9034V23.0641L59.1292 21.4916V15.0968H51.5809V18.3464L47.7739 16.7599C47.6154 12.6586 46.5863 8.58497 44.7507 4.914L43.7655 2.94523C42.8585 1.12837 41.0319 0 39 0C36.9681 0 35.1415 1.12837 34.2332 2.94629L33.248 4.91506C31.4126 8.58629 30.3836 12.6599 30.2251 16.7612L26.4194 18.3464V15.0968H18.8711V21.4916L15.0968 23.0641V20.1289H7.54828V26.2091L3.09609 28.0634C1.21529 28.8486 0 30.6716 0 32.7098C0 35.4852 2.25701 37.7422 5.05878 37.7422C6.79612 37.7422 8.53979 37.5599 10.2433 37.2024L30.1936 33.0017V40.2584H25.1613C23.6604 40.2584 22.3093 40.9188 21.387 41.9656C20.465 40.9188 19.1136 40.2584 17.6127 40.2584H5.03236C2.25701 40.2581 0 42.5151 0 45.2904V72.9676C0 75.743 2.25701 78 5.03236 78H17.613C19.1139 78 20.465 77.3395 21.3873 76.2928C22.3093 77.3395 23.6607 78 25.1615 78H72.9676C75.743 78 78 75.743 78 72.9676V45.2904C78 42.5151 75.743 40.2581 72.9676 40.2581ZM75.4838 32.7098C75.4838 34.0974 74.3554 35.226 72.9412 35.226C71.3775 35.226 69.8074 35.0625 68.2764 34.7404L47.8064 30.4314V28.0021L62.62 31.4203L63.1861 28.9683L47.8064 25.4181V19.5001L73.9351 30.3876C74.8762 30.7786 75.4838 31.6895 75.4838 32.7098ZM65.4194 22.6451H67.9355V25.1613L65.4194 24.1132V22.6451ZM54.0968 17.613H56.613V20.4436L54.0968 19.3955V17.613ZM21.387 17.613H23.9032V19.3958L21.387 20.4438V17.613ZM10.0645 22.6451H12.5806V24.1132L10.0645 25.1613V22.6451ZM9.72497 34.7401C8.19265 35.0622 6.62254 35.2257 5.03236 35.2257C3.64482 35.2257 2.51618 34.0974 2.51618 32.7095C2.51618 31.6892 3.12383 30.7783 4.06488 30.386L30.1936 19.4999V25.4178L14.8139 28.9667L15.38 31.4187L30.1936 28.0006V30.4298L9.72497 34.7401ZM32.7098 17.8558C32.7098 13.7758 33.6746 9.69089 35.4989 6.03999L36.4841 4.07122C36.9633 3.11247 37.9271 2.51618 39.0003 2.51618C40.0734 2.51618 41.0372 3.11247 41.5164 4.07122L42.5016 6.03999C44.3259 9.69089 45.2907 13.7758 45.2907 17.8558V40.2581H32.7098V17.8558ZM72.9676 75.4838H25.1613C23.7737 75.4838 22.6451 74.3554 22.6451 72.9676H20.1289C20.1289 74.3552 19.0005 75.4838 17.6127 75.4838H5.03236C3.64482 75.4838 2.51618 74.3554 2.51618 72.9676V70.4515H17.613V67.9353H2.51618V50.3223H17.613V47.8061H2.51618V45.2899C2.51618 43.9024 3.64455 42.7737 5.03236 42.7737H17.613C19.0005 42.7737 20.1292 43.9021 20.1292 45.2899H22.6454C22.6454 43.9024 23.7737 42.7737 25.1615 42.7737H30.1939H47.8069H72.9682C74.3557 42.7737 75.4843 43.9021 75.4843 45.2899V47.8061H25.1613V50.3223H75.4838V67.9353H69.1934H25.1613V70.4515H69.1936H75.4841V72.9676C75.4838 74.3554 74.3554 75.4838 72.9676 75.4838Z" fill="#678CC4"/>
<path d="M22.6453 62.9031H20.1292V65.4193H22.6453V62.9031Z" fill="#678CC4"/>
<path d="M22.6453 57.8711H20.1292V60.3873H22.6453V57.8711Z" fill="#678CC4"/>
<path d="M22.6453 52.8386H20.1292V55.3548H22.6453V52.8386Z" fill="#678CC4"/>
<path d="M22.6453 47.8064H20.1292V50.3226H22.6453V47.8064Z" fill="#678CC4"/>
<path d="M22.6453 67.9355H20.1292V70.4517H22.6453V67.9355Z" fill="#678CC4"/>
<path d="M8.80665 52.8386H6.29047V65.4193H8.80665V52.8386Z" fill="#678CC4"/>
<path d="M15.0968 52.8386H12.5806V65.4193H15.0968V52.8386Z" fill="#678CC4"/>
<path d="M56.613 54.0969H25.1613V56.6131H56.613V54.0969Z" fill="#678CC4"/>
<path d="M56.613 61.645H25.1613V64.1612H56.613V61.645Z" fill="#678CC4"/>
<path d="M56.613 56.613H25.1613V61.6454H56.613V56.613Z" fill="#C2E6FA"/>
</svg>
