<svg width="78" height="78" viewBox="0 0 78 78" fill="none" xmlns="http://www.w3.org/2000/svg">
<path d="M39 47.9122C52.2014 47.9122 62.9032 37.2103 62.9032 24.0089C62.9032 10.8075 52.2014 0.105713 39 0.105713C25.7986 0.105713 15.0968 10.8075 15.0968 24.0089C15.0968 37.2103 25.7986 47.9122 39 47.9122Z" fill="#ABD5EC"/>
<path d="M67.2624 47.9121H66.8661C65.6534 47.9121 64.4922 48.2895 63.5109 49.0041L61.7911 50.2546C60.7268 48.8104 59.0234 47.9121 57.1979 47.9121H56.8016C55.5888 47.9121 54.4277 48.2895 53.4464 49.0041L41.1073 57.9766H36.4839V60.4928H51.9895L64.9891 51.0384C65.5389 50.6396 66.1868 50.4282 66.8649 50.4282H67.2612C69.0199 50.4282 70.4516 51.8599 70.4516 53.6187C70.4516 54.4717 70.1195 55.2718 69.5181 55.8744L57.413 67.9782C55.7486 69.6414 53.5395 70.5573 51.1869 70.5573H26.0382L18.1727 75.8009L19.5679 77.8943L26.8006 73.0734H51.1869C54.2113 73.0734 57.0545 71.8959 59.1919 69.7571L71.297 57.6533C72.3739 56.5751 72.9678 55.1435 72.9678 53.6187C72.9678 50.4723 70.4088 47.9121 67.2624 47.9121ZM51.1718 57.9766H45.3847L54.9246 51.0384C55.4744 50.6396 56.1223 50.4282 56.8004 50.4282H57.1967C58.2144 50.4282 59.1467 50.9415 59.7417 51.7429L51.1718 57.9766Z" fill="#678CC4"/>
<path d="M32.7097 57.3476C32.7097 59.0812 31.2994 60.4927 29.5645 60.4927H20.129V63.0089H29.5645C32.6858 63.0089 35.2258 60.4688 35.2258 57.3476C35.2258 54.2263 32.6858 51.6863 29.5645 51.6863H17.2569L0.598839 61.937L1.91855 64.0795L17.9689 54.2024H29.5645C31.2994 54.2024 32.7097 55.614 32.7097 57.3476Z" fill="#678CC4"/>
<path d="M13.8387 39.1057H11.3226V41.6218H13.8387V39.1057Z" fill="#678CC4"/>
<path d="M13.8387 44.1379H11.3226V46.6541H13.8387V44.1379Z" fill="#678CC4"/>
<path d="M16.3548 41.6218H13.8387V44.138H16.3548V41.6218Z" fill="#678CC4"/>
<path d="M11.3226 41.6218H8.80644V44.138H11.3226V41.6218Z" fill="#678CC4"/>
<path d="M5.03225 2.62183H2.51612V5.13796H5.03225V2.62183Z" fill="#678CC4"/>
<path d="M5.03225 7.65405H2.51612V10.1702H5.03225V7.65405Z" fill="#678CC4"/>
<path d="M7.54839 5.13794H5.03226V7.65407H7.54839V5.13794Z" fill="#678CC4"/>
<path d="M2.51613 5.13794H0V7.65407H2.51613V5.13794Z" fill="#678CC4"/>
<path d="M75.4839 18.9768H72.9677V21.4929H75.4839V18.9768Z" fill="#678CC4"/>
<path d="M75.4839 24.009H72.9677V26.5252H75.4839V24.009Z" fill="#678CC4"/>
<path d="M78 21.4927H75.4839V24.0088H78V21.4927Z" fill="#678CC4"/>
<path d="M40.8182 24.9394C44.937 24.9394 48.2879 21.5885 48.2879 17.4697C48.2879 13.3509 44.937 10 40.8182 10C40.8021 10 40.7861 10.0003 40.7702 10.0009H34.6684C34.6678 10.0009 34.6673 10.0008 34.6668 10.0008C33.9388 10.0008 33.3486 10.591 33.3486 11.319V11.3191V23.6212V27.5758H32.0303C31.3023 27.5758 30.7121 28.166 30.7121 28.8939C30.7121 29.6219 31.3023 30.2121 32.0303 30.2121H33.3485V37.6818C33.3485 38.4098 33.9387 39 34.6667 39C35.3947 39 35.9848 38.4098 35.9848 37.6818V30.2121H40.8182C41.5462 30.2121 42.1364 29.6219 42.1364 28.8939C42.1364 28.166 41.5462 27.5758 40.8182 27.5758H35.9848V24.9394H40.8182ZM40.8182 12.6372C40.8324 12.6372 40.8467 12.637 40.8607 12.6365C43.5064 12.6594 45.6515 14.8187 45.6515 17.4697C45.6515 20.1348 43.4833 22.303 40.8182 22.303H35.9848V12.6372H40.8182Z" fill="#678CC4"/>
<path d="M72.9677 21.4927H70.4516V24.0088H72.9677V21.4927Z" fill="#678CC4"/>
</svg>
