<svg width="78" height="78" viewBox="0 0 78 78" fill="none" xmlns="http://www.w3.org/2000/svg">
<path d="M76.3279 68.26L63.8165 55.7472C68.1456 49.735 70.4515 42.6733 70.4515 35.2257C70.4517 15.8025 54.649 0 35.2257 0C15.8025 0 0 15.8025 0 35.2257C0 54.649 15.8025 70.4515 35.2257 70.4515C42.6723 70.4515 49.735 68.1443 55.7472 63.8165L68.26 76.3292C69.3368 77.4061 70.7685 78 72.2934 78C75.44 78 78 75.441 78 72.2947C78 70.7711 77.4061 69.3371 76.3279 68.26ZM60.2789 52.2097L61.2765 51.2121L59.4977 49.4333L58.5001 50.4309L55.7499 47.6796L53.9711 49.4584L56.7213 52.2097L52.2099 56.7211L49.4597 53.9697L48.6544 54.775L47.5675 54.2479C44.0675 61.4567 39.0996 65.3578 36.4841 67.0323V55.3549H33.9679V67.065C31.0253 65.2257 25.1576 60.601 21.6665 51.5003C23.7486 51.1077 26.0899 50.782 28.7104 50.5756L28.5128 48.0671C25.6408 48.2935 23.0881 48.656 20.8285 49.0938C19.7265 45.5245 19.0056 41.3429 18.8962 36.4841H27.6775V33.9679H18.8962C19.0056 29.1094 19.7265 24.9248 20.8285 21.3571C24.4265 22.0554 28.7834 22.5487 33.9676 22.6216V27.6777H36.4838V22.62C41.6544 22.5484 46.0024 22.0565 49.5955 21.3606C50.5075 24.3108 51.1743 27.6635 51.4411 31.4842L53.951 31.308C53.6768 27.3742 52.9986 23.9019 52.0665 20.8296C57.3477 19.5641 60.6715 17.9435 62.3463 16.9573C65.6537 21.8512 67.6642 27.6862 67.903 33.9676H55.3552V36.4838H67.8856C67.6492 42.7967 65.6363 48.7789 62.0129 53.9433L60.2789 52.2097ZM2.54762 33.9676C2.78671 27.6862 4.79696 21.8512 8.1044 16.9573C9.77649 17.9424 13.094 19.5601 18.3615 20.8245C17.2281 24.57 16.4883 28.9266 16.38 33.9676H2.54762ZM16.3813 36.4838C16.4896 41.5262 17.2294 45.8841 18.3641 49.6306C13.108 50.8924 9.78415 52.5103 8.10572 53.4942C4.79828 48.5989 2.78671 42.7653 2.54762 36.4838H16.3813ZM36.4838 3.3904C39.419 5.23103 45.2727 9.8494 48.7651 18.9427C45.3848 19.5804 41.3098 20.0346 36.4838 20.1038V3.3904ZM33.9676 20.1038C29.1342 20.0333 25.0543 19.5791 21.67 18.9387C25.1623 9.84544 31.0274 5.22337 33.9676 3.38643V20.1038ZM60.8351 14.9119C59.2499 15.8038 56.1351 17.2619 51.2562 18.4169C48.2846 10.442 43.5795 5.57449 40.121 2.88367C48.4769 4.14282 55.8001 8.57863 60.8351 14.9119ZM30.3157 2.88605C26.8497 5.57713 22.137 10.4383 19.1691 18.4117C14.3053 17.2579 11.1992 15.8038 9.61665 14.9129C14.649 8.58259 21.9659 4.14784 30.3157 2.88605ZM9.61533 55.5372C11.2042 54.644 14.3143 53.1832 19.1665 52.0335C22.1341 60.0108 26.8481 64.8746 30.3154 67.5654C21.9659 66.3039 14.6464 61.8691 9.61533 55.5372ZM40.1059 67.5607C42.7616 65.4862 46.1559 62.1156 48.9538 57.023L50.4306 58.4999L49.433 59.4975L51.2118 61.2763L52.2094 60.2787L53.9431 62.0123C49.7767 64.9351 45.0828 66.8196 40.1059 67.5607ZM72.2934 75.4838C71.4403 75.4838 70.6404 75.1517 70.0377 74.5504L53.9885 58.5001L58.4999 53.9888L74.5491 70.0391C75.1517 70.6417 75.4838 71.443 75.4838 72.2947C75.4838 74.0522 74.0522 75.4838 72.2934 75.4838Z" fill="#678CC4"/>
<path d="M41.5162 57.8711C50.5487 57.8711 57.8711 50.5487 57.8711 41.5162C57.8711 32.4836 50.5487 25.1613 41.5162 25.1613C32.4836 25.1613 25.1613 32.4836 25.1613 41.5162C25.1613 50.5487 32.4836 57.8711 41.5162 57.8711Z" fill="#ABD5EC"/>
<path d="M42.7743 34.081V31.4517H40.2581V34.081C37.1041 34.6131 34.6144 37.1041 34.081 40.2581H31.4517V42.7743H34.081C34.6131 45.9282 37.1041 48.418 40.2581 48.9514V51.5806H42.7743V48.9514C45.9282 48.4193 48.418 45.9282 48.9514 42.7743H51.5806V40.2581H48.9514C48.418 37.1041 45.9282 34.6144 42.7743 34.081ZM42.7743 46.3697V45.2902H40.2581V46.3697C38.498 45.9118 37.1205 44.5341 36.6624 42.774H37.7419V40.2578H36.6624C37.1203 38.4978 38.498 37.1203 40.2581 36.6622V37.7416H42.7743V36.6622C44.5343 37.12 45.9118 38.4978 46.37 40.2578H45.2905V42.774H46.37C45.9118 44.5343 44.5343 45.9118 42.7743 46.3697Z" fill="#678CC4"/>
<path d="M41.5162 42.7743C42.211 42.7743 42.7743 42.211 42.7743 41.5162C42.7743 40.8214 42.211 40.2581 41.5162 40.2581C40.8214 40.2581 40.2581 40.8214 40.2581 41.5162C40.2581 42.211 40.8214 42.7743 41.5162 42.7743Z" fill="#678CC4"/>
</svg>
