<svg width="78" height="78" viewBox="0 0 78 78" fill="none" xmlns="http://www.w3.org/2000/svg">
<path d="M51.5807 60.3871C43.9379 60.3871 37.7419 54.1911 37.7419 46.5484V44.0323C37.7419 36.3895 43.9379 30.1935 51.5807 30.1935C59.2234 30.1935 65.4194 36.3895 65.4194 44.0323V46.5484C65.4194 54.1911 59.2234 60.3871 51.5807 60.3871Z" fill="#ABD5EC"/>
<path d="M71.7097 12.5806C75.1837 12.5806 78 9.76437 78 6.29032C78 2.81627 75.1837 0 71.7097 0C68.2356 0 65.4194 2.81627 65.4194 6.29032C65.4194 9.76437 68.2356 12.5806 71.7097 12.5806Z" fill="#ABD5EC"/>
<path d="M65.4193 22.6452C68.8934 22.6452 71.7097 19.8289 71.7097 16.3548C71.7097 12.8808 68.8934 10.0645 65.4193 10.0645C61.9453 10.0645 59.129 12.8808 59.129 16.3548C59.129 19.8289 61.9453 22.6452 65.4193 22.6452Z" fill="#ABD5EC"/>
<path d="M46.5484 30.1936C50.0224 30.1936 52.8387 27.3773 52.8387 23.9032C52.8387 20.4292 50.0224 17.6129 46.5484 17.6129C43.0743 17.6129 40.2581 20.4292 40.2581 23.9032C40.2581 27.3773 43.0743 30.1936 46.5484 30.1936Z" fill="#ABD5EC"/>
<path d="M54.0968 15.0968C57.5708 15.0968 60.3871 12.2805 60.3871 8.80644C60.3871 5.33239 57.5708 2.51611 54.0968 2.51611C50.6227 2.51611 47.8065 5.33239 47.8065 8.80644C47.8065 12.2805 50.6227 15.0968 54.0968 15.0968Z" fill="#ABD5EC"/>
<path d="M27.6774 70.4516H17.6129V72.9677H27.6774V70.4516Z" fill="#678CC4"/>
<path d="M78 30.8805L65.6823 20.1014C67.6386 19.9642 69.1936 18.3464 69.1936 16.3548C69.1936 15.4692 68.874 14.6653 68.362 14.0199L70.8932 9.97016C71.1574 10.028 71.4291 10.0645 71.7097 10.0645C73.7905 10.0645 75.4839 8.37116 75.4839 6.29032C75.4839 4.20948 73.7905 2.51613 71.7097 2.51613C69.6288 2.51613 67.9355 4.20948 67.9355 6.29032C67.9355 7.176 68.255 7.98116 68.7671 8.62529L66.2358 12.675C65.9729 12.6171 65.6999 12.5806 65.4194 12.5806C64.5727 12.5806 63.799 12.8713 63.1687 13.343L57.7439 9.7261C57.8194 9.43045 57.871 9.126 57.871 8.80645C57.871 6.72561 56.1776 5.03226 54.0968 5.03226C52.0159 5.03226 50.3226 6.72561 50.3226 8.80645C50.3226 9.82171 50.7302 10.7401 51.3844 11.4195L50.7855 12.6171C48.8708 12.7215 47.0051 13.1883 45.2903 14.0035V6.29032C45.2903 2.82184 42.4685 0 39 0H6.29032C2.82184 0 0 2.82184 0 6.29032V71.7097C0 75.1782 2.82184 78 6.29032 78H39C42.4685 78 45.2903 75.1782 45.2903 71.7097V62.9032H78V30.8805ZM27.6774 34.2231L40.2581 45.2312V46.5484C40.2581 46.9724 40.2857 47.3888 40.331 47.8002L27.6774 58.8736V34.2231ZM41.0041 50.5541C42.627 54.8239 46.7484 57.871 51.5806 57.871H52.8387V55.3548H51.5806C46.7258 55.3548 42.7742 51.4045 42.7742 46.5484V44.0323C42.7742 39.1761 46.7258 35.2258 51.5806 35.2258C56.4355 35.2258 60.3871 39.1761 60.3871 44.0323V51.5806C60.3871 52.2738 59.8235 52.8387 59.129 52.8387C58.4346 52.8387 57.871 52.2738 57.871 51.5806V46.5484V44.0323C57.871 40.5638 55.0491 37.7419 51.5806 37.7419C48.1122 37.7419 45.2903 40.5638 45.2903 44.0323V46.5484C45.2903 50.0169 48.1122 52.8387 51.5806 52.8387C53.0023 52.8387 54.3006 52.3468 55.3548 51.5479V51.5806C55.3548 53.6615 57.0482 55.3548 59.129 55.3548C61.2099 55.3548 62.9032 53.6615 62.9032 51.5806V51.207L73.3942 60.3871H29.7671L41.0041 50.5541ZM55.3548 46.5484C55.3548 48.6292 53.6615 50.3226 51.5806 50.3226C49.4998 50.3226 47.8064 48.6292 47.8064 46.5484V44.0323C47.8064 41.9514 49.4998 40.2581 51.5806 40.2581C53.6615 40.2581 55.3548 41.9514 55.3548 44.0323V46.5484ZM62.9032 47.8656V45.2324L75.4839 34.2244V58.8736L62.9032 47.8656ZM54.0968 12.5806C54.9435 12.5806 55.7172 12.2913 56.3475 11.8183L61.7722 15.4352C61.6967 15.7308 61.6452 16.0365 61.6452 16.3548C61.6452 16.4354 61.664 16.5108 61.6691 16.5901L61.2287 16.2051C59.0535 14.3029 56.3764 13.1103 53.5432 12.7278L53.6401 12.5354C53.7911 12.553 53.9408 12.5806 54.0968 12.5806ZM71.7097 5.03226C72.4041 5.03226 72.9677 5.59713 72.9677 6.29032C72.9677 6.98352 72.4041 7.54839 71.7097 7.54839C71.0152 7.54839 70.4516 6.98352 70.4516 6.29032C70.4516 5.59713 71.0152 5.03226 71.7097 5.03226ZM65.4194 15.0968C66.1138 15.0968 66.6774 15.6616 66.6774 16.3548C66.6774 17.048 66.1138 17.6129 65.4194 17.6129C64.7249 17.6129 64.1613 17.048 64.1613 16.3548C64.1613 15.6616 64.7249 15.0968 65.4194 15.0968ZM54.0968 7.54839C54.7912 7.54839 55.3548 8.11326 55.3548 8.80645C55.3548 9.49965 54.7912 10.0645 54.0968 10.0645C53.4023 10.0645 52.8387 9.49965 52.8387 8.80645C52.8387 8.11326 53.4023 7.54839 54.0968 7.54839ZM47.8064 23.9032C47.8064 24.5964 47.2428 25.1613 46.5484 25.1613C45.8539 25.1613 45.2903 24.5964 45.2903 23.9032C45.2903 23.21 45.8539 22.6452 46.5484 22.6452C47.2428 22.6452 47.8064 23.21 47.8064 23.9032ZM47.0063 20.1756C46.8541 20.1567 46.7056 20.129 46.5484 20.129C44.4675 20.129 42.7742 21.8224 42.7742 23.9032C42.7742 25.9841 44.4675 27.6774 46.5484 27.6774C48.6292 27.6774 50.3226 25.9841 50.3226 23.9032C50.3226 22.888 49.915 21.9696 49.262 21.2915L52.3418 15.132C55.0076 15.2993 57.5514 16.3322 59.5731 18.0998L74.8322 31.4516L62.7183 42.0508C61.7773 36.7506 57.1476 32.7097 51.5806 32.7097C46.0137 32.7097 41.384 36.7506 40.443 42.0508L28.3291 31.4516L43.5882 18.0998C45.2601 16.6366 47.2894 15.673 49.4495 15.288L47.0063 20.1756ZM6.29032 2.51613H39C41.0808 2.51613 42.7742 4.20948 42.7742 6.29032V10.0645H2.51613V6.29032C2.51613 4.20948 4.20948 2.51613 6.29032 2.51613ZM39 75.4839H6.29032C4.20948 75.4839 2.51613 73.7905 2.51613 71.7097V67.9355H42.7742V71.7097C42.7742 73.7905 41.0808 75.4839 39 75.4839ZM42.7742 65.4194H2.51613V12.5806H42.7742V15.5333C42.4886 15.7485 42.2043 15.9674 41.9325 16.2051L25.1613 30.8805V62.9032H42.7742V65.4194Z" fill="#678CC4"/>
<path d="M7.54836 20.129H5.03223V49.0645H7.54836V20.129Z" fill="#678CC4"/>
<path d="M7.54836 15.0968H5.03223V17.6129H7.54836V15.0968Z" fill="#678CC4"/>
</svg>
