<svg width="78" height="78" viewBox="0 0 78 78" fill="none" xmlns="http://www.w3.org/2000/svg">
<path d="M15.8138 48.3447C17.0026 48.8203 18.2708 49.0644 19.5516 49.0644H22.6453C24.0355 49.0644 25.1615 50.1904 25.1615 51.5806C25.1615 54.3596 27.4148 56.6129 30.1938 56.6129C32.9729 56.6129 35.2262 54.3596 35.2262 51.5806V48.0605C35.2262 45.5142 34.0688 43.1074 32.081 41.5161C30.0932 39.9259 28.9357 37.5181 28.9357 34.9718V25.1813C28.9357 23.5269 28.4465 21.909 27.5279 20.5328L23.9031 15.0968L23.6402 14.4814C15.488 19.5991 10.0644 28.6636 10.0644 38.9999C10.0644 41.5777 10.4065 44.0751 11.0382 46.4539L11.3225 46.5482L15.8138 48.3447Z" fill="#ABD5EC"/>
<path d="M67.9355 39.0001C67.9355 26.066 59.4486 15.117 47.7398 11.4106L41.2644 20.0448C40.6116 20.9153 40.2578 21.976 40.2578 23.0642V33.9678C40.2578 36.7468 42.5111 39.0001 45.2902 39.0001H55.3546C56.7448 39.0001 57.8708 37.8741 57.8708 36.4839C57.8708 35.0938 58.9968 33.9678 60.387 33.9678C61.7772 33.9678 62.9032 35.0938 62.9032 36.4839V42.8748C62.9032 43.6095 62.5824 44.3078 62.025 44.7846L54.976 50.827C54.4175 51.3049 54.0965 52.0032 54.0965 52.7379V63.6869C62.3962 58.6009 67.9355 49.4485 67.9355 39.0001Z" fill="#ABD5EC"/>
<path d="M38.9999 8.8064C22.352 8.8064 8.80627 22.3519 8.80627 39C8.80627 55.6482 22.3517 69.1937 38.9999 69.1937C55.6481 69.1937 69.1935 55.6482 69.1935 39C69.1935 22.3519 55.6478 8.8064 38.9999 8.8064ZM38.9999 66.6775C23.7382 66.6775 11.3225 54.2617 11.3225 39C11.3225 23.7384 23.7382 11.3226 38.9999 11.3226C54.2616 11.3226 66.6774 23.7384 66.6774 39C66.6774 54.2617 54.2616 66.6775 38.9999 66.6775Z" fill="#678CC4"/>
<path d="M72.7613 19.4988L70.5849 20.7593C73.7893 26.2923 75.4838 32.6002 75.4838 39C75.4838 59.1165 59.1165 75.4838 39 75.4838C18.8835 75.4838 2.51618 59.1165 2.51618 39C2.51618 18.8835 18.8835 2.51618 39 2.51618C44.7317 2.51618 50.4005 3.88867 55.4793 6.4627C55.4027 6.8125 55.3549 7.17471 55.3549 7.54854C55.3549 10.3239 57.6119 12.5809 60.3873 12.5809C63.1626 12.5809 65.4196 10.3239 65.4196 7.54854C65.4196 4.77319 63.1626 2.51618 60.3873 2.51618C58.889 2.51618 57.5578 3.1867 56.6344 4.22842C51.1994 1.47077 45.1319 0 39 0C17.4946 0 0 17.4946 0 39C0 60.5054 17.4946 78 39 78C60.5054 78 78 60.5054 78 39C78 32.1587 76.1897 25.4141 72.7613 19.4988ZM60.387 5.03236C61.7745 5.03236 62.9032 6.16073 62.9032 7.54854C62.9032 8.93635 61.7748 10.0647 60.387 10.0647C58.9992 10.0647 57.8708 8.93635 57.8708 7.54854C57.8708 6.16073 58.9995 5.03236 60.387 5.03236Z" fill="#678CC4"/>
</svg>
