<svg width="18" height="18" viewBox="0 0 18 18" fill="none" xmlns="http://www.w3.org/2000/svg">
<path d="M0.28772 8.30064L6.78815 1.80006C6.97371 1.6145 7.22102 1.51265 7.48473 1.51265C7.74873 1.51265 7.99589 1.61465 8.18145 1.80006L8.77164 2.3904C8.95706 2.57566 9.0592 2.82313 9.0592 3.08698C9.0592 3.35068 8.95706 3.60649 8.77164 3.79175L4.97939 7.59235H17.0276C17.5708 7.59235 18 8.01762 18 8.56098V9.39556C18 9.93892 17.5708 10.4071 17.0276 10.4071H4.93636L8.7715 14.2289C8.95691 14.4144 9.05906 14.6552 9.05906 14.919C9.05906 15.1826 8.95691 15.4268 8.7715 15.6122L8.18131 16.2007C7.99575 16.3862 7.74858 16.4874 7.48458 16.4874C7.22088 16.4874 6.97356 16.3849 6.788 16.1994L0.287573 9.69892C0.101576 9.51278 -0.000715256 9.26429 1.52588e-05 9.00015C-0.000570297 8.73513 0.101576 8.48649 0.28772 8.30064Z" fill="#678CC4"/>
</svg>
