<svg width="13" height="13" viewBox="0 0 13 13" fill="none" xmlns="http://www.w3.org/2000/svg">
<path d="M0.20779 3.30251L0.633623 2.87372C0.76764 2.73981 0.945942 2.66604 1.13651 2.66604C1.32696 2.66604 1.50548 2.73981 1.63949 2.87372L6.49709 7.73153L11.3603 2.86833C11.4941 2.73442 11.6726 2.66075 11.8631 2.66075C12.0535 2.66075 12.2321 2.73442 12.3661 2.86833L12.792 3.29448C13.0693 3.5716 13.0693 4.02301 12.792 4.30014L7.00177 10.1112C6.86797 10.245 6.68966 10.3393 6.49752 10.3393H6.4953C6.30473 10.3393 6.12643 10.2449 5.99263 10.1112L0.20779 4.31589C0.0737734 4.18208 0.000210762 3.99839 0 3.80793C0 3.61737 0.0737734 3.43621 0.20779 3.30251Z" fill="#ffffff"/>
</svg>
