<svg width="9" height="13" viewBox="0 0 9 13" fill="none" xmlns="http://www.w3.org/2000/svg">
<path d="M1.30253 12.7922L0.873736 12.3664C0.739824 12.2324 0.666051 12.0541 0.666051 11.8635C0.666051 11.673 0.739824 11.4945 0.873736 11.3605L5.73155 6.50291L0.868346 1.6397C0.734434 1.5059 0.660767 1.32738 0.660767 1.13693C0.660767 0.946471 0.734434 0.767852 0.868346 0.63394L1.2945 0.208002C1.57162 -0.0693339 2.02303 -0.0693339 2.30015 0.208002L8.1112 5.99823C8.24501 6.13203 8.33928 6.31034 8.33928 6.50248V6.5047C8.33928 6.69527 8.2449 6.87357 8.1112 7.00737L2.3159 12.7922C2.1821 12.9262 1.9984 12.9998 1.80795 13C1.61738 13 1.43623 12.9262 1.30253 12.7922Z" fill="#0C2C5C"/>
</svg>
