<svg width="9" height="13" viewBox="0 0 9 13" fill="none" xmlns="http://www.w3.org/2000/svg">
<path d="M7.69749 0.20779L8.12629 0.633623C8.2602 0.76764 8.33397 0.945942 8.33397 1.13651C8.33397 1.32696 8.2602 1.50548 8.12629 1.63949L3.26848 6.49709L8.13168 11.3603C8.26559 11.4941 8.33926 11.6726 8.33926 11.8631C8.33926 12.0535 8.26559 12.2321 8.13168 12.3661L7.70553 12.792C7.4284 13.0693 6.97699 13.0693 6.69987 12.792L0.888822 7.00177C0.755015 6.86797 0.660738 6.68966 0.660738 6.49752V6.4953C0.660738 6.30473 0.755121 6.12643 0.888822 5.99263L6.68412 0.20779C6.81793 0.0737734 7.00162 0.000210762 7.19208 0C7.38264 0 7.56379 0.0737734 7.69749 0.20779Z" fill="#0C2C5C"/>
</svg>
