<svg width="13" height="13" viewBox="0 0 13 13" fill="none" xmlns="http://www.w3.org/2000/svg">
<path d="M0.20779 3.3025L0.633623 2.87371C0.76764 2.73979 0.945942 2.66602 1.13651 2.66602C1.32696 2.66602 1.50548 2.73979 1.63949 2.87371L6.49709 7.73152L11.3603 2.86832C11.4941 2.7344 11.6726 2.66074 11.8631 2.66074C12.0535 2.66074 12.2321 2.7344 12.3661 2.86832L12.792 3.29446C13.0693 3.57159 13.0693 4.023 12.792 4.30012L7.00177 10.1112C6.86797 10.245 6.68966 10.3393 6.49752 10.3393H6.4953C6.30473 10.3393 6.12643 10.2449 5.99263 10.1112L0.20779 4.31587C0.0737734 4.18207 0.000210762 3.99837 0 3.80792C0 3.61735 0.0737734 3.4362 0.20779 3.3025Z" fill="#0C2C5C"/>
</svg>
