<svg width="37" height="37" viewBox="0 0 37 37" fill="none" xmlns="http://www.w3.org/2000/svg">
<path d="M25.4375 0H11.5625C5.17769 0 0 5.17769 0 11.5625V25.4375C0 31.8223 5.17769 37 11.5625 37H25.4375C31.8223 37 37 31.8223 37 25.4375V11.5625C37 5.17769 31.8223 0 25.4375 0ZM33.5312 25.4375C33.5312 29.9006 29.9006 33.5312 25.4375 33.5312H11.5625C7.09938 33.5312 3.46875 29.9006 3.46875 25.4375V11.5625C3.46875 7.09938 7.09938 3.46875 11.5625 3.46875H25.4375C29.9006 3.46875 33.5312 7.09938 33.5312 11.5625V25.4375Z" fill="#333333"/>
<path d="M18.5 9.25C13.3917 9.25 9.25 13.3917 9.25 18.5C9.25 23.6083 13.3917 27.75 18.5 27.75C23.6083 27.75 27.75 23.6083 27.75 18.5C27.75 13.3917 23.6083 9.25 18.5 9.25ZM18.5 24.2812C15.3134 24.2812 12.7188 21.6866 12.7188 18.5C12.7188 15.3111 15.3134 12.7188 18.5 12.7188C21.6866 12.7188 24.2812 15.3111 24.2812 18.5C24.2812 21.6866 21.6866 24.2812 18.5 24.2812Z" fill="#333333"/>
<path d="M28.4437 9.78885C29.1245 9.78885 29.6763 9.23702 29.6763 8.55629C29.6763 7.87557 29.1245 7.32373 28.4437 7.32373C27.763 7.32373 27.2112 7.87557 27.2112 8.55629C27.2112 9.23702 27.763 9.78885 28.4437 9.78885Z" fill="#333333"/>
</svg>
