<svg width="15" height="13" viewBox="0 0 15 13" fill="none" xmlns="http://www.w3.org/2000/svg">
<g clip-path="url(#clip0)">
<path d="M0.478091 3.30241L0.933634 2.87361C1.077 2.7397 1.26774 2.66593 1.4716 2.66593C1.67534 2.66593 1.86631 2.7397 2.00968 2.87361L7.20618 7.73143L12.4087 2.86822C12.5518 2.73431 12.7428 2.66064 12.9465 2.66064C13.1503 2.66064 13.3414 2.73431 13.4846 2.86822L13.9403 3.29437C14.237 3.5715 14.237 4.02291 13.9403 4.30003L7.74607 10.1111C7.60293 10.2449 7.41219 10.3392 7.20664 10.3392H7.20426C7.0004 10.3392 6.80966 10.2448 6.66652 10.1111L0.478091 4.31578C0.334724 4.18197 0.25603 3.99828 0.255804 3.80782C0.255804 3.61726 0.334724 3.43611 0.478091 3.30241Z" fill="#28B758"/>
</g>
<defs>
<clipPath id="clip0">
<rect width="13.907" height="13" transform="matrix(-1 0 0 1 14.1628 0)" fill="white"/>
</clipPath>
</defs>
</svg>
